<svg width="100%" viewBox="0 0 680 460" xmlns="http://www.w3.org/2000/svg" role="img">
<title>Nexus Agent architecture</title>
<desc>LangGraph state machine showing plan, search, analyze, reflect nodes</desc>
<defs>
<marker id="arrow" viewBox="0 0 10 10" refX="8" refY="5" markerWidth="6" markerHeight="6" orient="auto-start-reverse">
<path d="M2 1L8 5L2 9" fill="none" stroke="#888780" stroke-width="1.5" stroke-linecap="round" stroke-linejoin="round"/>
</marker>
<style>
  text { font-family: -apple-system, BlinkMacSystemFont, 'Segoe UI', sans-serif; }
  .th { font-size: 14px; font-weight: 600; fill: #1a1a1a; }
  .ts { font-size: 12px; fill: #666; }
  .teal-box { fill: #E1F5EE; stroke: #0F6E56; stroke-width: 0.5; }
  .purple-box { fill: #EEEDFE; stroke: #534AB7; stroke-width: 0.5; }
  .gray-box { fill: #F1EFE8; stroke: #5F5E5A; stroke-width: 0.5; }
  .arr { stroke: #888780; stroke-width: 1.2; fill: none; }
  .dashed-border { fill: none; stroke: #B4B2A9; stroke-width: 0.5; stroke-dasharray: 5 4; }
  .dashed-arr { stroke: #B4B2A9; stroke-width: 1; fill: none; stroke-dasharray: 4 3; }
  .yes-label { font-size: 13px; font-weight: 600; fill: #0F6E56; }
</style>
</defs>

<g>
  <rect x="20" y="190" width="100" height="52" rx="8" class="gray-box"/>
  <text class="th" x="70" y="216" text-anchor="middle" dominant-baseline="central">User goal</text>
</g>

<line x1="120" y1="216" x2="148" y2="216" class="arr" marker-end="url(#arrow)"/>

<g>
  <rect x="150" y="190" width="130" height="52" rx="8" class="teal-box"/>
  <text class="th" x="215" y="207" text-anchor="middle" dominant-baseline="central">Plan</text>
  <text class="ts" x="215" y="225" text-anchor="middle" dominant-baseline="central">Break into queries</text>
</g>

<line x1="280" y1="216" x2="308" y2="216" class="arr" marker-end="url(#arrow)"/>

<g>
  <rect x="310" y="190" width="140" height="52" rx="8" class="teal-box"/>
  <text class="th" x="380" y="207" text-anchor="middle" dominant-baseline="central">Search</text>
  <text class="ts" x="380" y="225" text-anchor="middle" dominant-baseline="central">Tavily web search</text>
</g>

<line x1="450" y1="216" x2="478" y2="216" class="arr" marker-end="url(#arrow)"/>

<g>
  <rect x="480" y="190" width="140" height="52" rx="8" class="teal-box"/>
  <text class="th" x="550" y="207" text-anchor="middle" dominant-baseline="central">Analyze</text>
  <text class="ts" x="550" y="225" text-anchor="middle" dominant-baseline="central">GPT-4o synthesis</text>
</g>

<line x1="550" y1="242" x2="550" y2="308" class="arr" marker-end="url(#arrow)"/>

<g>
  <rect x="480" y="310" width="140" height="52" rx="8" class="purple-box"/>
  <text class="th" x="550" y="327" text-anchor="middle" dominant-baseline="central">Reflect</text>
  <text class="ts" x="550" y="345" text-anchor="middle" dominant-baseline="central">Quality check</text>
</g>

<path d="M480 336 L400 336 L400 242 L450 242" class="dashed-arr" marker-end="url(#arrow)"/>
<text class="ts" x="420" y="326" text-anchor="middle">retry if NO</text>

<path d="M550 362 L550 410 L490 410" class="arr" marker-end="url(#arrow)"/>
<text class="yes-label" x="558" y="392" text-anchor="start">YES</text>

<g>
  <rect x="350" y="388" width="140" height="52" rx="8" class="gray-box"/>
  <text class="th" x="420" y="405" text-anchor="middle" dominant-baseline="central">Report ready</text>
  <text class="ts" x="420" y="423" text-anchor="middle" dominant-baseline="central">Browser + .docx</text>
</g>

<rect x="130" y="158" width="510" height="230" rx="14" class="dashed-border"/>
<text class="ts" x="385" y="149" text-anchor="middle">LangGraph state machine</text>

<g>
  <rect x="240" y="58" width="210" height="52" rx="8" class="gray-box"/>
  <text class="th" x="345" y="75" text-anchor="middle" dominant-baseline="central">FastAPI backend</text>
  <text class="ts" x="345" y="93" text-anchor="middle" dominant-baseline="central">/research · /status · /report</text>
</g>

<line x1="345" y1="110" x2="345" y2="156" class="dashed-arr" marker-end="url(#arrow)"/>

</svg>
